<?xml version="1.0" standalone="no"?>
<!DOCTYPE svg PUBLIC "-//W3C//DTD SVG 1.1//EN" "https://www.w3.org/Graphics/SVG/1.1/DTD/svg11.dtd">

<svg width="800" height="600" version="1.1" xmlns="http://www.w3.org/2000/svg">
	<ellipse stroke="black" stroke-width="1" fill="none" cx="66.5" cy="321.5" rx="30" ry="30"/>
	<text x="61.5" y="327.5" font-family="Times New Roman" font-size="20">1</text>
	<ellipse stroke="black" stroke-width="1" fill="none" cx="191.5" cy="166.5" rx="30" ry="30"/>
	<text x="186.5" y="172.5" font-family="Times New Roman" font-size="20">2</text>
	<ellipse stroke="black" stroke-width="1" fill="none" cx="278.5" cy="274.5" rx="30" ry="30"/>
	<text x="273.5" y="280.5" font-family="Times New Roman" font-size="20">3</text>
	<ellipse stroke="black" stroke-width="1" fill="none" cx="278.5" cy="274.5" rx="24" ry="24"/>
	<ellipse stroke="black" stroke-width="1" fill="none" cx="278.5" cy="535.5" rx="30" ry="30"/>
	<text x="273.5" y="541.5" font-family="Times New Roman" font-size="20">4</text>
	<ellipse stroke="black" stroke-width="1" fill="none" cx="278.5" cy="535.5" rx="24" ry="24"/>
	<ellipse stroke="black" stroke-width="1" fill="none" cx="441.5" cy="129.5" rx="30" ry="30"/>
	<text x="436.5" y="135.5" font-family="Times New Roman" font-size="20">6</text>
	<ellipse stroke="black" stroke-width="1" fill="none" cx="311.5" cy="389.5" rx="30" ry="30"/>
	<text x="306.5" y="395.5" font-family="Times New Roman" font-size="20">7</text>
	<ellipse stroke="black" stroke-width="1" fill="none" cx="663.5" cy="321.5" rx="30" ry="30"/>
	<text x="658.5" y="327.5" font-family="Times New Roman" font-size="20">5</text>
	<path stroke="black" stroke-width="1" fill="none" d="M 42.273,304.006 A 22.5,22.5 0 1 1 65.649,291.629"/>
	<text x="8.5" y="252.5" font-family="Times New Roman" font-size="20">" "</text>
	<polygon fill="black" stroke-width="1" points="65.649,291.629 71.727,284.414 61.827,283.004"/>
	<path stroke="black" stroke-width="1" fill="none" d="M 167.043,183.671 A 22.5,22.5 0 1 1 162.994,157.533"/>
	<text x="96.5" y="184.5" font-family="Times New Roman" font-size="20">" "</text>
	<polygon fill="black" stroke-width="1" points="162.994,157.533 158.164,149.429 153.593,158.324"/>
	<path stroke="black" stroke-width="1" fill="none" d="M 308.354,271.557 A 822.71,822.71 0 0 1 635.231,311.462"/>
	<polygon fill="black" stroke-width="1" points="308.354,271.557 316.728,275.902 315.928,265.934"/>
	<text x="465.5" y="264.5" font-family="Times New Roman" font-size="20">0-9</text>
	<path stroke="black" stroke-width="1" fill="none" d="M 271.479,245.454 A 22.5,22.5 0 1 1 297.284,251.259"/>
	<text x="291.5" y="198.5" font-family="Times New Roman" font-size="20">0-9</text>
	<polygon fill="black" stroke-width="1" points="297.284,251.259 306.594,249.732 299.991,242.221"/>
	<path stroke="black" stroke-width="1" fill="none" d="M 264.09,561.679 A 22.5,22.5 0 1 1 248.956,539.987"/>
	<text x="190.5" y="593.5" font-family="Times New Roman" font-size="20">0-9</text>
	<polygon fill="black" stroke-width="1" points="248.956,539.987 241.053,534.834 240.862,544.833"/>
	<path stroke="black" stroke-width="1" fill="none" d="M 662.143,351.451 A 249.956,249.956 0 0 1 304.654,550.159"/>
	<polygon fill="black" stroke-width="1" points="304.654,550.159 309.676,558.146 314.033,549.145"/>
	<text x="539.5" y="564.5" font-family="Times New Roman" font-size="20">alphabet</text>
	<path stroke="black" stroke-width="1" fill="none" d="M 688.028,338.569 A 22.5,22.5 0 1 1 664.872,351.351"/>
	<text x="701.5" y="401.5" font-family="Times New Roman" font-size="20">" "</text>
	<polygon fill="black" stroke-width="1" points="664.872,351.351 658.921,358.672 668.844,359.908"/>
	<path stroke="black" stroke-width="1" fill="none" d="M 81.544,295.549 A 555.185,555.185 0 0 1 169.325,186.701"/>
	<polygon fill="black" stroke-width="1" points="169.325,186.701 160.093,188.642 167.025,195.85"/>
	<text x="109.5" y="230.5" font-family="Times New Roman" font-size="20">-</text>
	<polygon stroke="black" stroke-width="1" points="95.789,315.007 249.211,280.993"/>
	<polygon fill="black" stroke-width="1" points="249.211,280.993 240.319,277.843 242.483,287.606"/>
	<text x="147.5" y="287.5" font-family="Times New Roman" font-size="20">0-9</text>
	<path stroke="black" stroke-width="1" fill="none" d="M 249.742,527.004 A 285.666,285.666 0 0 1 74.725,350.336"/>
	<polygon fill="black" stroke-width="1" points="249.742,527.004 243.866,519.624 240.533,529.053"/>
	<text x="69.5" y="479.5" font-family="Times New Roman" font-size="20">alphabet</text>
	<path stroke="black" stroke-width="1" fill="none" d="M 257.54,514.201 A 22.5,22.5 0 1 1 282.656,505.908"/>
	<text x="189.5" y="460.5" font-family="Times New Roman" font-size="20">alphabet</text>
	<polygon fill="black" stroke-width="1" points="282.656,505.908 289.855,499.81 280.33,496.765"/>
	<polygon stroke="black" stroke-width="1" points="210.32,189.863 259.68,251.137"/>
	<polygon fill="black" stroke-width="1" points="259.68,251.137 258.555,241.771 250.768,248.044"/>
	<text x="240.5" y="212.5" font-family="Times New Roman" font-size="20">0-9</text>
	<polygon stroke="black" stroke-width="1" points="285.114,506.238 304.886,418.762"/>
	<polygon fill="black" stroke-width="1" points="304.886,418.762 298.245,425.463 307.999,427.667"/>
	<text x="302.5" y="472.5" font-family="Times New Roman" font-size="20">" "</text>
	<polygon stroke="black" stroke-width="1" points="286.775,303.336 303.225,360.664"/>
	<polygon fill="black" stroke-width="1" points="303.225,360.664 305.825,351.595 296.213,354.353"/>
	<text x="265.5" y="343.5" font-family="Times New Roman" font-size="20">" "</text>
	<polygon stroke="black" stroke-width="1" points="340.955,383.81 634.045,327.19"/>
	<polygon fill="black" stroke-width="1" points="634.045,327.19 625.241,323.798 627.138,333.617"/>
	<text x="474.5" y="379.5" font-family="Times New Roman" font-size="20">operator</text>
	<path stroke="black" stroke-width="1" fill="none" d="M 221.481,165.517 A 683.348,683.348 0 0 1 639.938,302.934"/>
	<polygon fill="black" stroke-width="1" points="221.481,165.517 229.535,170.43 229.427,160.431"/>
	<text x="446.5" y="190.5" font-family="Times New Roman" font-size="20">-</text>
	<path stroke="black" stroke-width="1" fill="none" d="M 341.383,389.361 A 22.5,22.5 0 1 1 329.787,413.134"/>
	<text x="379.5" y="435.5" font-family="Times New Roman" font-size="20">" "</text>
	<polygon fill="black" stroke-width="1" points="329.787,413.134 329.127,422.545 337.957,417.851"/>
	<polygon stroke="black" stroke-width="1" points="308.279,278.135 633.721,317.865"/>
	<polygon fill="black" stroke-width="1" points="633.721,317.865 626.386,311.932 625.174,321.858"/>
	<text x="427.5" y="322.5" font-family="Times New Roman" font-size="20">operator</text>
	<path stroke="black" stroke-width="1" fill="none" d="M 642.862,343.27 A 686.419,686.419 0 0 1 307.884,529.466"/>
	<polygon fill="black" stroke-width="1" points="642.862,343.27 633.68,345.436 640.786,352.473"/>
	<text x="493.5" y="481.5" font-family="Times New Roman" font-size="20">operator</text>
	<path stroke="black" stroke-width="1" fill="none" d="M 220.681,159.54 A 1279.128,1279.128 0 0 1 411.554,131.29"/>
	<polygon fill="black" stroke-width="1" points="411.554,131.29 403.218,126.874 403.931,136.849"/>
	<text x="267.5" y="129.5" font-family="Times New Roman" font-size="20">alphabet</text>
	<path stroke="black" stroke-width="1" fill="none" d="M 210.042,142.966 A 168.884,168.884 0 0 1 416.936,112.346"/>
	<polygon fill="black" stroke-width="1" points="416.936,112.346 412.485,104.028 407.509,112.703"/>
	<text x="260.5" y="79.5" font-family="Times New Roman" font-size="20">operator</text>
	<path stroke="black" stroke-width="1" fill="none" d="M 53.664,294.413 A 210.82,210.82 0 0 1 427.028,103.25"/>
	<polygon fill="black" stroke-width="1" points="427.028,103.25 426.873,93.818 418.481,99.256"/>
	<text x="14.5" y="20.5" font-family="Times New Roman" font-size="20">binary_operators</text>
	<path stroke="black" stroke-width="1" fill="none" d="M 471.045,124.505 A 178.581,178.581 0 0 1 664.183,291.543"/>
	<polygon fill="black" stroke-width="1" points="471.045,124.505 479.435,128.821 478.601,118.855"/>
	<text x="607.5" y="158.5" font-family="Times New Roman" font-size="20">binary_operators</text>
	<path stroke="black" stroke-width="1" fill="none" d="M 424.864,154.455 A 374.068,374.068 0 0 1 305.223,260.885"/>
	<polygon fill="black" stroke-width="1" points="424.864,154.455 416.118,157.991 424.209,163.867"/>
	<text x="375.5" y="235.5" font-family="Times New Roman" font-size="20">alphabet</text>
	<path stroke="black" stroke-width="1" fill="none" d="M 470.256,121.036 A 213.11,213.11 0 1 1 321.982,417.583"/>
	<polygon fill="black" stroke-width="1" points="470.256,121.036 479.141,124.207 476.999,114.439"/>
	<text x="713.5" y="441.5" font-family="Times New Roman" font-size="20">alphabet</text>
	<path stroke="black" stroke-width="1" fill="none" d="M 281.728,392.909 A 183.875,183.875 0 1 1 426.364,103.637"/>
	<polygon fill="black" stroke-width="1" points="426.364,103.637 425.87,94.216 417.679,99.953"/>
	<text x="77.5" y="121.5" font-family="Times New Roman" font-size="20">0-9</text>
	<path stroke="black" stroke-width="1" fill="none" d="M 440.298,99.641 A 22.5,22.5 0 1 1 464.469,110.384"/>
	<text x="472.5" y="58.5" font-family="Times New Roman" font-size="20">any character</text>
	<polygon fill="black" stroke-width="1" points="464.469,110.384 473.897,110.708 468.891,102.051"/>
</svg>
