<?xml version="1.0" standalone="no"?>
<!DOCTYPE svg PUBLIC "-//W3C//DTD SVG 1.1//EN" "https://www.w3.org/Graphics/SVG/1.1/DTD/svg11.dtd">

<svg width="800" height="600" version="1.1" xmlns="http://www.w3.org/2000/svg">
	<ellipse stroke="black" stroke-width="1" fill="none" cx="66.5" cy="321.5" rx="30" ry="30"/>
	<text x="61.5" y="327.5" font-family="Times New Roman" font-size="20">1</text>
	<ellipse stroke="black" stroke-width="1" fill="none" cx="191.5" cy="166.5" rx="30" ry="30"/>
	<text x="186.5" y="172.5" font-family="Times New Roman" font-size="20">2</text>
	<ellipse stroke="black" stroke-width="1" fill="none" cx="278.5" cy="274.5" rx="30" ry="30"/>
	<text x="273.5" y="280.5" font-family="Times New Roman" font-size="20">3</text>
	<ellipse stroke="black" stroke-width="1" fill="none" cx="278.5" cy="274.5" rx="24" ry="24"/>
	<ellipse stroke="black" stroke-width="1" fill="none" cx="278.5" cy="535.5" rx="30" ry="30"/>
	<text x="273.5" y="541.5" font-family="Times New Roman" font-size="20">4</text>
	<ellipse stroke="black" stroke-width="1" fill="none" cx="278.5" cy="535.5" rx="24" ry="24"/>
	<ellipse stroke="black" stroke-width="1" fill="none" cx="430.5" cy="132.5" rx="30" ry="30"/>
	<text x="425.5" y="138.5" font-family="Times New Roman" font-size="20">6</text>
	<ellipse stroke="black" stroke-width="1" fill="none" cx="310.5" cy="389.5" rx="30" ry="30"/>
	<text x="305.5" y="395.5" font-family="Times New Roman" font-size="20">7</text>
	<ellipse stroke="black" stroke-width="1" fill="none" cx="310.5" cy="389.5" rx="24" ry="24"/>
	<ellipse stroke="black" stroke-width="1" fill="none" cx="663.5" cy="321.5" rx="30" ry="30"/>
	<text x="658.5" y="327.5" font-family="Times New Roman" font-size="20">5</text>
	<path stroke="black" stroke-width="1" fill="none" d="M 42.273,304.006 A 22.5,22.5 0 1 1 65.649,291.629"/>
	<text x="8.5" y="252.5" font-family="Times New Roman" font-size="20">" "</text>
	<polygon fill="black" stroke-width="1" points="65.649,291.629 71.727,284.414 61.827,283.004"/>
	<path stroke="black" stroke-width="1" fill="none" d="M 167.043,183.671 A 22.5,22.5 0 1 1 162.994,157.533"/>
	<text x="96.5" y="184.5" font-family="Times New Roman" font-size="20">" "</text>
	<polygon fill="black" stroke-width="1" points="162.994,157.533 158.164,149.429 153.593,158.324"/>
	<path stroke="black" stroke-width="1" fill="none" d="M 308.354,271.557 A 822.71,822.71 0 0 1 635.231,311.462"/>
	<polygon fill="black" stroke-width="1" points="308.354,271.557 316.728,275.902 315.928,265.934"/>
	<text x="465.5" y="264.5" font-family="Times New Roman" font-size="20">0-9</text>
	<path stroke="black" stroke-width="1" fill="none" d="M 271.479,245.454 A 22.5,22.5 0 1 1 297.284,251.259"/>
	<text x="291.5" y="198.5" font-family="Times New Roman" font-size="20">0-9</text>
	<polygon fill="black" stroke-width="1" points="297.284,251.259 306.594,249.732 299.991,242.221"/>
	<path stroke="black" stroke-width="1" fill="none" d="M 264.09,561.679 A 22.5,22.5 0 1 1 248.956,539.987"/>
	<text x="190.5" y="593.5" font-family="Times New Roman" font-size="20">0-9</text>
	<polygon fill="black" stroke-width="1" points="248.956,539.987 241.053,534.834 240.862,544.833"/>
	<path stroke="black" stroke-width="1" fill="none" d="M 662.143,351.451 A 249.956,249.956 0 0 1 304.654,550.159"/>
	<polygon fill="black" stroke-width="1" points="304.654,550.159 309.676,558.146 314.033,549.145"/>
	<text x="539.5" y="564.5" font-family="Times New Roman" font-size="20">alphabet</text>
	<path stroke="black" stroke-width="1" fill="none" d="M 688.028,338.569 A 22.5,22.5 0 1 1 664.872,351.351"/>
	<text x="701.5" y="401.5" font-family="Times New Roman" font-size="20">" "</text>
	<polygon fill="black" stroke-width="1" points="664.872,351.351 658.921,358.672 668.844,359.908"/>
	<path stroke="black" stroke-width="1" fill="none" d="M 81.544,295.549 A 555.185,555.185 0 0 1 169.325,186.701"/>
	<polygon fill="black" stroke-width="1" points="169.325,186.701 160.093,188.642 167.025,195.85"/>
	<text x="109.5" y="230.5" font-family="Times New Roman" font-size="20">-</text>
	<polygon stroke="black" stroke-width="1" points="95.789,315.007 249.211,280.993"/>
	<polygon fill="black" stroke-width="1" points="249.211,280.993 240.319,277.843 242.483,287.606"/>
	<text x="147.5" y="287.5" font-family="Times New Roman" font-size="20">0-9</text>
	<path stroke="black" stroke-width="1" fill="none" d="M 249.742,527.004 A 285.666,285.666 0 0 1 74.725,350.336"/>
	<polygon fill="black" stroke-width="1" points="249.742,527.004 243.866,519.624 240.533,529.053"/>
	<text x="69.5" y="479.5" font-family="Times New Roman" font-size="20">alphabet</text>
	<path stroke="black" stroke-width="1" fill="none" d="M 257.54,514.201 A 22.5,22.5 0 1 1 282.656,505.908"/>
	<text x="189.5" y="460.5" font-family="Times New Roman" font-size="20">alphabet</text>
	<polygon fill="black" stroke-width="1" points="282.656,505.908 289.855,499.81 280.33,496.765"/>
	<polygon stroke="black" stroke-width="1" points="210.32,189.863 259.68,251.137"/>
	<polygon fill="black" stroke-width="1" points="259.68,251.137 258.555,241.771 250.768,248.044"/>
	<text x="240.5" y="212.5" font-family="Times New Roman" font-size="20">0-9</text>
	<polygon stroke="black" stroke-width="1" points="284.923,506.196 304.077,418.804"/>
	<polygon fill="black" stroke-width="1" points="304.077,418.804 297.48,425.548 307.248,427.689"/>
	<text x="301.5" y="472.5" font-family="Times New Roman" font-size="20">" "</text>
	<polygon stroke="black" stroke-width="1" points="286.542,303.402 302.458,360.598"/>
	<polygon fill="black" stroke-width="1" points="302.458,360.598 305.13,351.551 295.496,354.231"/>
	<text x="265.5" y="343.5" font-family="Times New Roman" font-size="20">" "</text>
	<polygon stroke="black" stroke-width="1" points="339.958,383.825 634.042,327.175"/>
	<polygon fill="black" stroke-width="1" points="634.042,327.175 625.24,323.778 627.132,333.598"/>
	<text x="474.5" y="379.5" font-family="Times New Roman" font-size="20">operator</text>
	<path stroke="black" stroke-width="1" fill="none" d="M 221.481,165.517 A 683.348,683.348 0 0 1 639.938,302.934"/>
	<polygon fill="black" stroke-width="1" points="221.481,165.517 229.535,170.43 229.427,160.431"/>
	<text x="446.5" y="190.5" font-family="Times New Roman" font-size="20">-</text>
	<path stroke="black" stroke-width="1" fill="none" d="M 340.383,389.361 A 22.5,22.5 0 1 1 328.787,413.134"/>
	<text x="378.5" y="435.5" font-family="Times New Roman" font-size="20">" "</text>
	<polygon fill="black" stroke-width="1" points="328.787,413.134 328.127,422.545 336.957,417.851"/>
	<polygon stroke="black" stroke-width="1" points="308.279,278.135 633.721,317.865"/>
	<polygon fill="black" stroke-width="1" points="633.721,317.865 626.386,311.932 625.174,321.858"/>
	<text x="427.5" y="322.5" font-family="Times New Roman" font-size="20">operator</text>
	<path stroke="black" stroke-width="1" fill="none" d="M 642.862,343.27 A 686.419,686.419 0 0 1 307.884,529.466"/>
	<polygon fill="black" stroke-width="1" points="642.862,343.27 633.68,345.436 640.786,352.473"/>
	<text x="493.5" y="481.5" font-family="Times New Roman" font-size="20">operator</text>
	<path stroke="black" stroke-width="1" fill="none" d="M 220.695,159.601 A 1167.412,1167.412 0 0 1 400.539,134.017"/>
	<polygon fill="black" stroke-width="1" points="400.539,134.017 392.238,129.534 392.872,139.514"/>
	<text x="262.5" y="130.5" font-family="Times New Roman" font-size="20">alphabet</text>
	<path stroke="black" stroke-width="1" fill="none" d="M 209.511,142.566 A 156.587,156.587 0 0 1 406.529,114.538"/>
	<polygon fill="black" stroke-width="1" points="406.529,114.538 402.299,106.106 397.095,114.645"/>
	<text x="256.5" y="80.5" font-family="Times New Roman" font-size="20">operator</text>
	<path stroke="black" stroke-width="1" fill="none" d="M 52.868,294.806 A 205.522,205.522 0 0 1 416.508,105.993"/>
	<polygon fill="black" stroke-width="1" points="416.508,105.993 416.507,96.559 408.028,101.859"/>
	<text x="7.5" y="23.5" font-family="Times New Roman" font-size="20">binary_operators</text>
	<path stroke="black" stroke-width="1" fill="none" d="M 459.961,127.014 A 184.849,184.849 0 0 1 662.79,291.541"/>
	<polygon fill="black" stroke-width="1" points="459.961,127.014 468.432,131.166 467.405,121.219"/>
	<text x="600.5" y="158.5" font-family="Times New Roman" font-size="20">binary_operators</text>
	<path stroke="black" stroke-width="1" fill="none" d="M 414.74,158.016 A 340.809,340.809 0 0 1 305.028,260.51"/>
	<polygon fill="black" stroke-width="1" points="414.74,158.016 406.107,161.818 414.375,167.443"/>
	<text x="370.5" y="236.5" font-family="Times New Roman" font-size="20">alphabet</text>
	<path stroke="black" stroke-width="1" fill="none" d="M 458.875,122.838 A 211.517,211.517 0 1 1 321.309,417.458"/>
	<polygon fill="black" stroke-width="1" points="458.875,122.838 467.884,125.638 465.34,115.967"/>
	<text x="711.5" y="433.5" font-family="Times New Roman" font-size="20">alphabet</text>
	<path stroke="black" stroke-width="1" fill="none" d="M 280.91,394.23 A 182.053,182.053 0 1 1 415.129,106.776"/>
	<polygon fill="black" stroke-width="1" points="415.129,106.776 414.541,97.361 406.408,103.179"/>
	<text x="68.5" y="131.5" font-family="Times New Roman" font-size="20">0-9</text>
	<path stroke="black" stroke-width="1" fill="none" d="M 429.298,102.641 A 22.5,22.5 0 1 1 453.469,113.384"/>
	<text x="461.5" y="61.5" font-family="Times New Roman" font-size="20">any character</text>
	<polygon fill="black" stroke-width="1" points="453.469,113.384 462.897,113.708 457.891,105.051"/>
</svg>
